<mxfile host="app.diagrams.net" agent="Mozilla/5.0 (Windows NT 10.0; Win64; x64) AppleWebKit/537.36 (KHTML, like Gecko) Chrome/135.0.0.0 Safari/537.36" version="26.2.14">
  <diagram name="Page-1" id="x6-CYrECyi5-pf-__gki">
    <mxGraphModel dx="1246" dy="676" grid="1" gridSize="10" guides="1" tooltips="1" connect="1" arrows="1" fold="1" page="1" pageScale="1" pageWidth="850" pageHeight="1100" math="0" shadow="0">
      <root>
        <mxCell id="0" />
        <mxCell id="1" parent="0" />
        <mxCell id="gjuqq1LmkSKDXxjJxMWr-1" value="Χρήστης&lt;div&gt;&lt;br&gt;&lt;/div&gt;" style="shape=umlActor;verticalLabelPosition=bottom;verticalAlign=top;html=1;outlineConnect=0;" vertex="1" parent="1">
          <mxGeometry x="90" y="210" width="30" height="60" as="geometry" />
        </mxCell>
        <mxCell id="gjuqq1LmkSKDXxjJxMWr-2" value="Οθόνη λίστας κατηγοριών κάδων και επιλογής προσβασιμότητας" style="shape=umlBoundary;whiteSpace=wrap;html=1;" vertex="1" parent="1">
          <mxGeometry x="390" y="95" width="130" height="105" as="geometry" />
        </mxCell>
        <mxCell id="gjuqq1LmkSKDXxjJxMWr-5" value="Οθόνη διαθέσιμων κάδων ή κάδου στον χάρτη" style="shape=umlBoundary;whiteSpace=wrap;html=1;" vertex="1" parent="1">
          <mxGeometry x="397.5" y="270" width="115" height="90" as="geometry" />
        </mxCell>
        <mxCell id="gjuqq1LmkSKDXxjJxMWr-7" value="Εμφανίζει οδηγίες για την επιλεγμένη κατηγορία" style="ellipse;shape=umlControl;whiteSpace=wrap;html=1;" vertex="1" parent="1">
          <mxGeometry x="620" y="430" width="86" height="90" as="geometry" />
        </mxCell>
        <mxCell id="gjuqq1LmkSKDXxjJxMWr-8" value="" style="html=1;verticalAlign=bottom;endArrow=block;curved=0;rounded=0;exitX=-0.001;exitY=0.705;exitDx=0;exitDy=0;exitPerimeter=0;entryX=0.981;entryY=0.508;entryDx=0;entryDy=0;entryPerimeter=0;" edge="1" parent="1" source="gjuqq1LmkSKDXxjJxMWr-7" target="gjuqq1LmkSKDXxjJxMWr-9">
          <mxGeometry width="80" relative="1" as="geometry">
            <mxPoint x="155" y="150" as="sourcePoint" />
            <mxPoint x="510" y="400" as="targetPoint" />
          </mxGeometry>
        </mxCell>
        <mxCell id="gjuqq1LmkSKDXxjJxMWr-9" value="Οθόνη διαθέσιμων κάδων στον χάρτη και οδηγιών" style="shape=umlBoundary;whiteSpace=wrap;html=1;" vertex="1" parent="1">
          <mxGeometry x="397.5" y="430" width="115" height="90" as="geometry" />
        </mxCell>
        <mxCell id="gjuqq1LmkSKDXxjJxMWr-10" value="καταχώρηση επιλογών χρήστη" style="ellipse;shape=umlControl;whiteSpace=wrap;html=1;" vertex="1" parent="1">
          <mxGeometry x="618" y="120" width="90" height="90" as="geometry" />
        </mxCell>
        <mxCell id="gjuqq1LmkSKDXxjJxMWr-13" value="Βάση CityZen" style="ellipse;shape=umlEntity;whiteSpace=wrap;html=1;" vertex="1" parent="1">
          <mxGeometry x="960" y="102.5" width="100" height="90" as="geometry" />
        </mxCell>
        <mxCell id="gjuqq1LmkSKDXxjJxMWr-14" value="" style="endArrow=none;html=1;rounded=0;entryX=0;entryY=0.5;entryDx=0;entryDy=0;exitX=1.01;exitY=0.538;exitDx=0;exitDy=0;exitPerimeter=0;" edge="1" parent="1" source="gjuqq1LmkSKDXxjJxMWr-10" target="gjuqq1LmkSKDXxjJxMWr-13">
          <mxGeometry width="50" height="50" relative="1" as="geometry">
            <mxPoint x="697" y="151" as="sourcePoint" />
            <mxPoint x="974" y="53" as="targetPoint" />
          </mxGeometry>
        </mxCell>
        <mxCell id="gjuqq1LmkSKDXxjJxMWr-15" value="" style="endArrow=none;html=1;rounded=0;entryX=0.034;entryY=0.731;entryDx=0;entryDy=0;exitX=0.97;exitY=0.41;exitDx=0;exitDy=0;exitPerimeter=0;entryPerimeter=0;" edge="1" parent="1" source="gjuqq1LmkSKDXxjJxMWr-7" target="gjuqq1LmkSKDXxjJxMWr-13">
          <mxGeometry width="50" height="50" relative="1" as="geometry">
            <mxPoint x="757" y="161" as="sourcePoint" />
            <mxPoint x="910" y="105" as="targetPoint" />
          </mxGeometry>
        </mxCell>
        <mxCell id="gjuqq1LmkSKDXxjJxMWr-16" value="" style="endArrow=classic;html=1;rounded=0;exitX=0.972;exitY=0.59;exitDx=0;exitDy=0;exitPerimeter=0;entryX=0.017;entryY=0.589;entryDx=0;entryDy=0;entryPerimeter=0;" edge="1" parent="1" source="gjuqq1LmkSKDXxjJxMWr-2" target="gjuqq1LmkSKDXxjJxMWr-10">
          <mxGeometry width="50" height="50" relative="1" as="geometry">
            <mxPoint x="640" y="360" as="sourcePoint" />
            <mxPoint x="690" y="310" as="targetPoint" />
          </mxGeometry>
        </mxCell>
        <mxCell id="gjuqq1LmkSKDXxjJxMWr-17" value="" style="endArrow=classic;html=1;rounded=0;exitX=0.357;exitY=0.984;exitDx=0;exitDy=0;exitPerimeter=0;entryX=0.293;entryY=0.202;entryDx=0;entryDy=0;entryPerimeter=0;" edge="1" parent="1" source="gjuqq1LmkSKDXxjJxMWr-10" target="gjuqq1LmkSKDXxjJxMWr-19">
          <mxGeometry width="50" height="50" relative="1" as="geometry">
            <mxPoint x="526" y="167" as="sourcePoint" />
            <mxPoint x="600" y="240" as="targetPoint" />
          </mxGeometry>
        </mxCell>
        <mxCell id="gjuqq1LmkSKDXxjJxMWr-19" value="ελέγχεται η διαθεσιμότητα κάδων της κατηγορίας" style="ellipse;shape=umlControl;whiteSpace=wrap;html=1;" vertex="1" parent="1">
          <mxGeometry x="618" y="280" width="90" height="92.5" as="geometry" />
        </mxCell>
        <mxCell id="gjuqq1LmkSKDXxjJxMWr-20" value="" style="endArrow=classic;html=1;rounded=0;exitX=-0.021;exitY=0.546;exitDx=0;exitDy=0;exitPerimeter=0;entryX=0.966;entryY=0.437;entryDx=0;entryDy=0;entryPerimeter=0;" edge="1" parent="1" source="gjuqq1LmkSKDXxjJxMWr-19" target="gjuqq1LmkSKDXxjJxMWr-5">
          <mxGeometry width="50" height="50" relative="1" as="geometry">
            <mxPoint x="515" y="295" as="sourcePoint" />
            <mxPoint x="686" y="406" as="targetPoint" />
          </mxGeometry>
        </mxCell>
        <mxCell id="gjuqq1LmkSKDXxjJxMWr-22" value="&lt;font style=&quot;font-size: 13px;&quot;&gt;Δεν βρίσκονται διαθέσιμοι κάδοι&lt;/font&gt;" style="html=1;verticalAlign=bottom;endArrow=block;curved=0;rounded=0;fillColor=#e51400;strokeColor=#B20000;exitX=1.025;exitY=0.66;exitDx=0;exitDy=0;exitPerimeter=0;" edge="1" parent="1" source="gjuqq1LmkSKDXxjJxMWr-19" target="gjuqq1LmkSKDXxjJxMWr-42">
          <mxGeometry x="-0.0189" y="-28" width="80" relative="1" as="geometry">
            <mxPoint x="756" y="602" as="sourcePoint" />
            <mxPoint x="920" y="360" as="targetPoint" />
            <mxPoint y="-1" as="offset" />
          </mxGeometry>
        </mxCell>
        <mxCell id="gjuqq1LmkSKDXxjJxMWr-23" value="Οθόνη μηνύματος μη εύρεσης κάδου&amp;nbsp;" style="shape=umlBoundary;whiteSpace=wrap;html=1;fillColor=#F8CECC;" vertex="1" parent="1">
          <mxGeometry x="1020" y="390" width="115" height="90" as="geometry" />
        </mxCell>
        <mxCell id="gjuqq1LmkSKDXxjJxMWr-24" value="" style="endArrow=none;html=1;rounded=0;exitX=0.966;exitY=0.457;exitDx=0;exitDy=0;exitPerimeter=0;entryX=0.008;entryY=0.613;entryDx=0;entryDy=0;entryPerimeter=0;" edge="1" parent="1" source="gjuqq1LmkSKDXxjJxMWr-19" target="gjuqq1LmkSKDXxjJxMWr-13">
          <mxGeometry width="50" height="50" relative="1" as="geometry">
            <mxPoint x="721" y="170" as="sourcePoint" />
            <mxPoint x="950" y="120" as="targetPoint" />
          </mxGeometry>
        </mxCell>
        <mxCell id="gjuqq1LmkSKDXxjJxMWr-25" value="&lt;font style=&quot;font-size: 13px;&quot;&gt;Επιλέγει κατηγορία κάδου ή&lt;/font&gt;&lt;div&gt;&lt;font style=&quot;font-size: 13px;&quot;&gt;&amp;nbsp;και προσβασιμότητα για αναπήρους&amp;nbsp;&lt;/font&gt;&lt;/div&gt;" style="html=1;verticalAlign=bottom;endArrow=block;curved=0;rounded=0;exitX=0.5;exitY=0.5;exitDx=0;exitDy=0;exitPerimeter=0;entryX=0.022;entryY=0.287;entryDx=0;entryDy=0;entryPerimeter=0;" edge="1" parent="1" source="gjuqq1LmkSKDXxjJxMWr-1" target="gjuqq1LmkSKDXxjJxMWr-2">
          <mxGeometry x="-0.0235" y="15" width="80" relative="1" as="geometry">
            <mxPoint x="110" y="210" as="sourcePoint" />
            <mxPoint x="390" y="129" as="targetPoint" />
            <mxPoint as="offset" />
          </mxGeometry>
        </mxCell>
        <mxCell id="gjuqq1LmkSKDXxjJxMWr-26" value="&lt;font style=&quot;font-size: 13px;&quot;&gt;Επιλέγει τον κάδο με&amp;nbsp;&lt;/font&gt;&lt;div&gt;&lt;font style=&quot;font-size: 13px;&quot;&gt;την χαμηλότερη πληρότητα&lt;/font&gt;&lt;/div&gt;" style="html=1;verticalAlign=bottom;endArrow=block;curved=0;rounded=0;fillColor=#e51400;strokeColor=#3632B2;exitX=0.5;exitY=0.5;exitDx=0;exitDy=0;exitPerimeter=0;entryX=-0.005;entryY=0.747;entryDx=0;entryDy=0;entryPerimeter=0;" edge="1" parent="1" source="gjuqq1LmkSKDXxjJxMWr-1" target="gjuqq1LmkSKDXxjJxMWr-2">
          <mxGeometry x="0.3003" y="-44" width="80" relative="1" as="geometry">
            <mxPoint x="110" y="150" as="sourcePoint" />
            <mxPoint x="321" y="145" as="targetPoint" />
            <mxPoint as="offset" />
          </mxGeometry>
        </mxCell>
        <mxCell id="gjuqq1LmkSKDXxjJxMWr-32" value="&lt;font style=&quot;font-size: 13px;&quot;&gt;Πατάει&amp;nbsp;&lt;span style=&quot;background-color: light-dark(#ffffff, var(--ge-dark-color, #121212));&quot;&gt;«Δες οδηγίες»&lt;/span&gt;&lt;/font&gt;" style="html=1;verticalAlign=bottom;endArrow=block;curved=0;rounded=0;exitX=0.5;exitY=0.5;exitDx=0;exitDy=0;exitPerimeter=0;entryX=0.004;entryY=0.463;entryDx=0;entryDy=0;entryPerimeter=0;" edge="1" parent="1" source="gjuqq1LmkSKDXxjJxMWr-1" target="gjuqq1LmkSKDXxjJxMWr-5">
          <mxGeometry x="0.1795" y="-12" width="80" relative="1" as="geometry">
            <mxPoint x="133" y="126" as="sourcePoint" />
            <mxPoint x="399" y="155" as="targetPoint" />
            <mxPoint as="offset" />
          </mxGeometry>
        </mxCell>
        <mxCell id="gjuqq1LmkSKDXxjJxMWr-33" value="" style="endArrow=classic;html=1;rounded=0;exitX=0.996;exitY=0.659;exitDx=0;exitDy=0;exitPerimeter=0;entryX=0;entryY=0.444;entryDx=0;entryDy=0;entryPerimeter=0;" edge="1" parent="1" source="gjuqq1LmkSKDXxjJxMWr-5" target="gjuqq1LmkSKDXxjJxMWr-7">
          <mxGeometry width="50" height="50" relative="1" as="geometry">
            <mxPoint x="638" y="298" as="sourcePoint" />
            <mxPoint x="627" y="460" as="targetPoint" />
          </mxGeometry>
        </mxCell>
        <mxCell id="gjuqq1LmkSKDXxjJxMWr-42" value="εμφάνιση ενημερωτικού μηνύματος" style="ellipse;shape=umlControl;whiteSpace=wrap;html=1;fillColor=#F8CECC;" vertex="1" parent="1">
          <mxGeometry x="910" y="300" width="90" height="90" as="geometry" />
        </mxCell>
        <mxCell id="gjuqq1LmkSKDXxjJxMWr-43" value="" style="endArrow=none;html=1;rounded=0;exitX=0.444;exitY=0.111;exitDx=0;exitDy=0;exitPerimeter=0;entryX=0.069;entryY=0.715;entryDx=0;entryDy=0;entryPerimeter=0;" edge="1" parent="1" source="gjuqq1LmkSKDXxjJxMWr-42" target="gjuqq1LmkSKDXxjJxMWr-13">
          <mxGeometry width="50" height="50" relative="1" as="geometry">
            <mxPoint x="715" y="322" as="sourcePoint" />
            <mxPoint x="971" y="168" as="targetPoint" />
          </mxGeometry>
        </mxCell>
        <mxCell id="gjuqq1LmkSKDXxjJxMWr-44" value="" style="html=1;verticalAlign=bottom;endArrow=block;curved=0;rounded=0;fillColor=#e51400;strokeColor=#B20000;exitX=0.743;exitY=0.965;exitDx=0;exitDy=0;exitPerimeter=0;entryX=0.022;entryY=0.505;entryDx=0;entryDy=0;entryPerimeter=0;" edge="1" parent="1" source="gjuqq1LmkSKDXxjJxMWr-42" target="gjuqq1LmkSKDXxjJxMWr-23">
          <mxGeometry x="-0.0189" y="-28" width="80" relative="1" as="geometry">
            <mxPoint x="720" y="341" as="sourcePoint" />
            <mxPoint x="870" y="352" as="targetPoint" />
            <mxPoint y="-1" as="offset" />
          </mxGeometry>
        </mxCell>
        <mxCell id="gjuqq1LmkSKDXxjJxMWr-45" value="" style="endArrow=classic;html=1;rounded=0;entryX=0.044;entryY=0.767;entryDx=0;entryDy=0;entryPerimeter=0;exitX=0.915;exitY=0.848;exitDx=0;exitDy=0;exitPerimeter=0;strokeColor=#3632B2;" edge="1" parent="1" source="gjuqq1LmkSKDXxjJxMWr-2" target="gjuqq1LmkSKDXxjJxMWr-10">
          <mxGeometry width="50" height="50" relative="1" as="geometry">
            <mxPoint x="526" y="167" as="sourcePoint" />
            <mxPoint x="630" y="183" as="targetPoint" />
          </mxGeometry>
        </mxCell>
        <mxCell id="gjuqq1LmkSKDXxjJxMWr-46" value="" style="endArrow=classic;html=1;rounded=0;entryX=0.644;entryY=0.141;entryDx=0;entryDy=0;entryPerimeter=0;exitX=0.567;exitY=1.033;exitDx=0;exitDy=0;exitPerimeter=0;strokeColor=#3632B2;" edge="1" parent="1" source="gjuqq1LmkSKDXxjJxMWr-10" target="gjuqq1LmkSKDXxjJxMWr-19">
          <mxGeometry width="50" height="50" relative="1" as="geometry">
            <mxPoint x="519" y="194" as="sourcePoint" />
            <mxPoint x="632" y="199" as="targetPoint" />
          </mxGeometry>
        </mxCell>
        <mxCell id="gjuqq1LmkSKDXxjJxMWr-47" value="" style="endArrow=classic;html=1;rounded=0;entryX=0.97;entryY=0.356;entryDx=0;entryDy=0;entryPerimeter=0;exitX=0.056;exitY=0.432;exitDx=0;exitDy=0;exitPerimeter=0;strokeColor=#3632B2;" edge="1" parent="1" source="gjuqq1LmkSKDXxjJxMWr-19" target="gjuqq1LmkSKDXxjJxMWr-5">
          <mxGeometry width="50" height="50" relative="1" as="geometry">
            <mxPoint x="679" y="223" as="sourcePoint" />
            <mxPoint x="686" y="303" as="targetPoint" />
          </mxGeometry>
        </mxCell>
      </root>
    </mxGraphModel>
  </diagram>
</mxfile>
